
<svg xmlns="http://www.w3.org/2000/svg" viewBox="0 0 380.267 380.267"><path d="M303.737 19.621h-54.739C240.571 7.463 226.669 0 211.427 0h-42.588c-15.241 0-29.143 7.462-37.571 19.621H76.529c-25.049 0-45.428 20.38-45.428 45.431v18.581c0 10.236 8.328 18.564 18.564 18.564h13.208l11.963 241.922c1.206 20.27 18.078 36.147 38.409 36.147h153.778c20.332 0 37.204-15.899 38.415-36.244l11.958-241.826h13.207c10.236 0 18.564-8.328 18.564-18.564v-18.58c-.001-25.051-20.38-45.431-45.43-45.431zM166.436 293.537c0 9.492-7.722 17.213-17.214 17.213-9.492 0-17.213-7.722-17.213-17.213V139.64c0-9.491 7.722-17.213 17.213-17.213 9.492 0 17.214 7.723 17.214 17.213v153.897zm81.822 0c0 9.492-7.722 17.213-17.214 17.213-9.491 0-17.213-7.722-17.213-17.213V139.64c0-9.491 7.723-17.213 17.213-17.213 9.493 0 17.214 7.723 17.214 17.213v153.897zm72.843-219.404H59.166v-9.081c0-9.576 7.789-17.367 17.363-17.367h62.986a14.033 14.033 0 0012.97-8.675 17.643 17.643 0 0116.355-10.946h42.588a17.642 17.642 0 0116.354 10.944 14.033 14.033 0 0012.97 8.677h62.986c9.574 0 17.364 7.791 17.364 17.367v9.081z"/></svg>